<svg width="1280" height="640" viewBox="0 0 1280 640" fill="none" xmlns="http://www.w3.org/2000/svg">
  <defs>
    <linearGradient id="bg" x1="0" y1="0" x2="1280" y2="640">
      <stop stop-color="#F4EBCA"/>
      <stop offset="0.55" stop-color="#FFD8A8"/>
      <stop offset="1" stop-color="#D73D07"/>
    </linearGradient>
    <linearGradient id="phone" x1="0" y1="0" x2="1" y2="1">
      <stop stop-color="#1B1B1B"/>
      <stop offset="1" stop-color="#050505"/>
    </linearGradient>
    <linearGradient id="orange" x1="0" y1="0" x2="1" y2="1">
      <stop stop-color="#FF8A35"/>
      <stop offset="1" stop-color="#D73D07"/>
    </linearGradient>
    <filter id="shadow"><feDropShadow dx="0" dy="28" stdDeviation="34" flood-color="#6B1C02" flood-opacity="0.35"/></filter>
  </defs>
  <rect width="1280" height="640" rx="36" fill="url(#bg)"/>
  <circle cx="1050" cy="85" r="180" fill="#FFFFFF" opacity="0.18"/>
  <circle cx="180" cy="560" r="220" fill="#FFFFFF" opacity="0.15"/>
  <path d="M80 500C240 405 390 465 555 360C730 250 900 235 1200 285" stroke="#FFFFFF" stroke-width="4" stroke-opacity="0.35"/>

  <g transform="translate(92 150)">
    <rect x="0" y="0" width="620" height="320" rx="34" fill="#FFFFFF" fill-opacity="0.70" stroke="#FFFFFF" stroke-opacity="0.65"/>
    <text x="44" y="88" fill="#1B1B1B" font-family="Arial, sans-serif" font-size="60" font-weight="900">Onboarding Login App</text>
    <text x="48" y="135" fill="#5E321F" font-family="Arial, sans-serif" font-size="24" font-weight="700">A polished Expo starter for onboarding and auth screens</text>
    <rect x="48" y="178" width="138" height="44" rx="22" fill="url(#orange)"/>
    <text x="78" y="207" fill="#FFFFFF" font-family="Arial, sans-serif" font-size="16" font-weight="800">Expo 52</text>
    <rect x="204" y="178" width="170" height="44" rx="22" fill="#1B1B1B" fill-opacity="0.08"/>
    <text x="232" y="207" fill="#1B1B1B" font-family="Arial, sans-serif" font-size="16" font-weight="800">React Native</text>
    <rect x="392" y="178" width="128" height="44" rx="22" fill="#1B1B1B" fill-opacity="0.08"/>
    <text x="426" y="207" fill="#1B1B1B" font-family="Arial, sans-serif" font-size="16" font-weight="800">Formik</text>
    <text x="48" y="272" fill="#3D2418" font-family="Arial, sans-serif" font-size="21" font-weight="600">Onboarding • Login • Signup • Forgot Password • Local Flow State</text>
  </g>

  <g transform="translate(805 76)" filter="url(#shadow)">
    <rect width="300" height="500" rx="44" fill="url(#phone)"/>
    <rect x="22" y="24" width="256" height="452" rx="34" fill="#F4EBCA"/>
    <rect x="52" y="60" width="196" height="188" rx="28" fill="#D73D07"/>
    <circle cx="150" cy="141" r="58" fill="#FFFFFF" fill-opacity="0.25"/>
    <path d="M118 152C142 124 161 120 184 150" stroke="#FFFFFF" stroke-width="13" stroke-linecap="round"/>
    <circle cx="125" cy="126" r="13" fill="#FFFFFF"/>
    <circle cx="176" cy="126" r="13" fill="#FFFFFF"/>
    <text x="150" y="298" text-anchor="middle" fill="#1B1B1B" font-family="Arial, sans-serif" font-size="30" font-weight="900">Fast Delivery</text>
    <text x="150" y="330" text-anchor="middle" fill="#61402F" font-family="Arial, sans-serif" font-size="16">Quick dependable deliveries</text>
    <rect x="66" y="374" width="168" height="52" rx="26" fill="#D73D07"/>
    <text x="150" y="407" text-anchor="middle" fill="#FFFFFF" font-family="Arial, sans-serif" font-size="17" font-weight="800">Get Started</text>
  </g>
</svg>
