<svg width="1280" height="720" viewBox="0 0 1280 720" fill="none" xmlns="http://www.w3.org/2000/svg">
  <defs>
    <linearGradient id="bg" x1="0" y1="0" x2="1280" y2="720"><stop stop-color="#F4EBCA"/><stop offset="1" stop-color="#D73D07"/></linearGradient>
    <linearGradient id="phone" x1="0" y1="0" x2="1" y2="1"><stop stop-color="#1E1E1E"/><stop offset="1" stop-color="#050505"/></linearGradient>
    <filter id="shadow"><feDropShadow dx="0" dy="24" stdDeviation="26" flood-color="#6B1C02" flood-opacity="0.30"/></filter>
  </defs>
  <rect width="1280" height="720" rx="36" fill="url(#bg)"/>
  <text x="640" y="78" text-anchor="middle" fill="#FFFFFF" font-family="Arial, sans-serif" font-size="42" font-weight="900">Nemo Delivers Auth Experience</text>
  <text x="640" y="116" text-anchor="middle" fill="#FFF4DF" font-family="Arial, sans-serif" font-size="19">Onboarding, sign in, sign up, password reset, and home reset flow</text>

  <g filter="url(#shadow)">
    <g transform="translate(90 165)">
      <rect width="190" height="410" rx="34" fill="url(#phone)"/>
      <rect x="14" y="18" width="162" height="374" rx="26" fill="#F4EBCA"/>
      <rect x="31" y="54" width="128" height="135" rx="24" fill="#D73D07"/>
      <circle cx="95" cy="118" r="42" fill="#FFFFFF" fill-opacity="0.28"/>
      <text x="95" y="241" text-anchor="middle" fill="#1B1B1B" font-size="22" font-weight="900" font-family="Arial, sans-serif">Fast Delivery</text>
      <text x="95" y="272" text-anchor="middle" fill="#674531" font-size="13" font-family="Arial, sans-serif">Quick deliveries</text>
      <rect x="50" y="316" width="90" height="38" rx="19" fill="#FFFFFF"/>
      <text x="95" y="340" text-anchor="middle" fill="#1B1B1B" font-size="12" font-weight="800" font-family="Arial, sans-serif">Get Started</text>
      <text x="95" y="442" text-anchor="middle" fill="#FFFFFF" font-size="16" font-weight="800" font-family="Arial, sans-serif">Onboarding</text>
    </g>
    <g transform="translate(330 165)">
      <rect width="190" height="410" rx="34" fill="url(#phone)"/>
      <rect x="14" y="18" width="162" height="374" rx="26" fill="#F4EBCA"/>
      <text x="31" y="72" fill="#1B1B1B" font-size="21" font-weight="900" font-family="Arial, sans-serif">Welcome Back!</text>
      <rect x="14" y="128" width="162" height="264" rx="32" fill="#D73D07"/>
      <rect x="32" y="165" width="126" height="44" rx="22" fill="#F4EBCA"/>
      <rect x="32" y="230" width="126" height="44" rx="22" fill="#F4EBCA"/>
      <rect x="32" y="310" width="126" height="44" rx="22" fill="#F4EBCA"/>
      <text x="95" y="442" text-anchor="middle" fill="#FFFFFF" font-size="16" font-weight="800" font-family="Arial, sans-serif">Login</text>
    </g>
    <g transform="translate(570 165)">
      <rect width="190" height="410" rx="34" fill="url(#phone)"/>
      <rect x="14" y="18" width="162" height="374" rx="26" fill="#F4EBCA"/>
      <text x="31" y="72" fill="#1B1B1B" font-size="20" font-weight="900" font-family="Arial, sans-serif">Getting Started</text>
      <rect x="14" y="128" width="162" height="264" rx="32" fill="#D73D07"/>
      <rect x="32" y="155" width="126" height="39" rx="20" fill="#F4EBCA"/>
      <rect x="32" y="211" width="126" height="39" rx="20" fill="#F4EBCA"/>
      <rect x="32" y="267" width="126" height="39" rx="20" fill="#F4EBCA"/>
      <rect x="32" y="334" width="126" height="38" rx="19" fill="#F4EBCA"/>
      <text x="95" y="442" text-anchor="middle" fill="#FFFFFF" font-size="16" font-weight="800" font-family="Arial, sans-serif">Signup</text>
    </g>
    <g transform="translate(810 165)">
      <rect width="190" height="410" rx="34" fill="url(#phone)"/>
      <rect x="14" y="18" width="162" height="374" rx="26" fill="#F4EBCA"/>
      <text x="95" y="112" text-anchor="middle" fill="#1B1B1B" font-size="22" font-weight="900" font-family="Arial, sans-serif">Forgot</text>
      <text x="95" y="142" text-anchor="middle" fill="#1B1B1B" font-size="22" font-weight="900" font-family="Arial, sans-serif">Password</text>
      <rect x="32" y="202" width="126" height="44" rx="22" fill="#FFFFFF"/>
      <rect x="32" y="284" width="126" height="44" rx="22" fill="#D73D07"/>
      <text x="95" y="442" text-anchor="middle" fill="#FFFFFF" font-size="16" font-weight="800" font-family="Arial, sans-serif">Reset</text>
    </g>
    <g transform="translate(1050 165)">
      <rect width="190" height="410" rx="34" fill="url(#phone)"/>
      <rect x="14" y="18" width="162" height="374" rx="26" fill="#F4EBCA"/>
      <text x="95" y="154" text-anchor="middle" fill="#D73D07" font-size="22" font-weight="900" font-family="Arial, sans-serif">Welcome</text>
      <text x="95" y="184" text-anchor="middle" fill="#D73D07" font-size="22" font-weight="900" font-family="Arial, sans-serif">to Our App!</text>
      <rect x="32" y="252" width="126" height="44" rx="22" fill="#D73D07"/>
      <text x="95" y="442" text-anchor="middle" fill="#FFFFFF" font-size="16" font-weight="800" font-family="Arial, sans-serif">Home</text>
    </g>
  </g>
</svg>
